 <svg
  width="100"
  height="36"
  viewBox="0 0 134 48"
  fill="white"
  xmlns="http://www.w3.org/2000/svg"
>
  <path d="M69.232 15.0462L75.5596 14.6384C75.704 15.6698 75.9686 16.4372 76.4017 16.9889C77.0994 17.8523 78.0618 18.284 79.3369 18.284C80.2753 18.284 81.0211 18.0681 81.5263 17.6124C82.0075 17.2527 82.2962 16.6771 82.2962 16.0775C82.2962 15.5019 82.0316 14.9502 81.5745 14.5905C81.0933 14.1588 79.9625 13.7271 78.1821 13.3433C75.2709 12.6958 73.1777 11.8323 71.9507 10.7291C70.7237 9.69777 70.026 8.18678 70.0741 6.57986C70.0741 5.4766 70.4109 4.37334 71.0365 3.46196C71.7582 2.43065 72.7447 1.6152 73.9236 1.1595C75.1987 0.607875 76.9791 0.320068 79.2166 0.320068C81.9594 0.320068 84.0526 0.82373 85.4961 1.85504C86.9397 2.86236 87.8058 4.49326 88.0705 6.72376L81.815 7.08352C81.6466 6.12417 81.3098 5.42864 80.7564 4.97294C80.2031 4.51725 79.4813 4.30139 78.543 4.30139C77.7731 4.30139 77.1956 4.46928 76.8107 4.78107C76.4498 5.06888 76.2092 5.50059 76.2333 5.98026C76.2333 6.34002 76.4258 6.6758 76.7145 6.89165C77.0272 7.17946 77.7731 7.44328 78.952 7.68312C81.8632 8.3067 83.9323 8.93028 85.2074 9.57785C86.4826 10.2254 87.3968 11.0169 87.9502 11.9523C88.5276 12.9116 88.8163 14.0149 88.7923 15.1421C88.7923 16.4852 88.4073 17.8283 87.6374 18.9555C86.8434 20.1308 85.7367 21.0421 84.4375 21.5938C83.0661 22.1934 81.3339 22.5052 79.2648 22.5052C75.6077 22.5052 73.0815 21.8096 71.662 20.3946C70.2425 18.9795 69.4004 17.2047 69.232 15.0462ZM2.08239 22.1454V0.70381H13.1737C15.2188 0.70381 16.8067 0.871698 17.8894 1.23146C18.948 1.56723 19.8863 2.26276 20.5118 3.19813C21.2096 4.22944 21.5464 5.42864 21.5223 6.6758C21.5945 8.78638 20.5118 10.801 18.6593 11.8563C17.9375 12.264 17.1435 12.5518 16.3255 12.6958C16.927 12.8636 17.5285 13.1514 18.0578 13.4872C18.4668 13.823 18.8036 14.2067 19.1164 14.6145C19.4773 15.0222 19.7901 15.4779 20.0547 15.9576L23.2787 22.1694H15.724L12.1633 15.5738C11.7061 14.7344 11.3212 14.1828 10.9603 13.9189C10.4791 13.5832 9.90168 13.4153 9.32425 13.4153H8.74683V22.1214H2.08239V22.1454ZM8.74683 9.38598H11.5618C12.1633 9.33801 12.7407 9.24207 13.3181 9.09817C13.7512 9.02622 14.1361 8.78638 14.4008 8.42662C15.0504 7.5632 14.9541 6.34002 14.1602 5.59652C13.7271 5.23676 12.885 5.04489 11.6821 5.04489H8.74683V9.38598ZM0.56665 40.5171L6.89426 40.1093C7.03861 41.1406 7.30327 41.9081 7.73633 42.4597C8.41 43.3232 9.39643 43.7789 10.6716 43.7789C11.6099 43.7789 12.3557 43.563 12.861 43.1073C13.3422 42.7236 13.6309 42.1719 13.6309 41.5723C13.6309 40.9967 13.3662 40.4451 12.9091 40.0853C12.4279 39.6536 11.2971 39.2219 9.49267 38.8382C6.58149 38.1906 4.48832 37.3272 3.2613 36.2239C2.03427 35.1926 1.33655 33.6816 1.38467 32.0747C1.38467 30.9715 1.7215 29.8682 2.34704 28.9568C3.06882 27.9255 4.05525 27.1101 5.23416 26.6544C6.50931 26.1027 8.2897 25.8149 10.5272 25.8149C13.27 25.8149 15.3631 26.3186 16.8067 27.3499C18.2503 28.3812 19.0923 29.9881 19.357 32.2186L13.1016 32.5784C12.9332 31.619 12.5963 30.9235 12.043 30.4678C11.5137 30.0121 10.7678 29.7963 9.8295 29.8202C9.0596 29.8202 8.48217 29.9881 8.09722 30.3239C7.71228 30.6117 7.49574 31.0434 7.5198 31.5231C7.5198 31.8829 7.71227 32.2186 8.00099 32.4345C8.31376 32.7223 9.0596 32.9861 10.2385 33.226C13.1497 33.8495 15.2188 34.4731 16.4939 35.1207C17.7691 35.7682 18.6833 36.5597 19.2367 37.4951C19.8141 38.4544 20.1028 39.5577 20.1028 40.661C20.1028 42.0041 19.6938 43.3232 18.948 44.4504C18.154 45.6256 17.0473 46.537 15.7481 47.0886C14.3767 47.6882 12.6444 48 10.5753 48C6.91832 48 4.39209 47.3045 2.97258 45.8894C1.55308 44.4504 0.759125 42.6756 0.56665 40.5171Z"></path>
  <path d="M32.5656 38.8382L38.3879 40.589C38.0752 42.052 37.4256 43.4431 36.5354 44.6663C35.7173 45.7455 34.6347 46.585 33.4076 47.1366C32.1566 47.6882 30.5686 47.976 28.6439 47.976C26.3101 47.976 24.3854 47.6403 22.9178 46.9687C21.4261 46.2972 20.151 45.098 19.0683 43.3951C17.9856 41.6923 17.4563 39.5097 17.4563 36.8475C17.4563 33.2979 18.3946 30.5638 20.2953 28.669C22.196 26.7743 24.8666 25.8149 28.3311 25.8149C31.0498 25.8149 33.1671 26.3666 34.7309 27.4458C36.2707 28.5491 37.4256 30.228 38.1955 32.4825L32.325 33.7776C32.1806 33.2739 31.9641 32.7703 31.6754 32.3386C31.3145 31.8349 30.8574 31.4512 30.304 31.1633C29.7506 30.8755 29.1251 30.7556 28.4995 30.7556C26.9838 30.7556 25.829 31.3552 25.035 32.5784C24.4335 33.4658 24.1207 34.8808 24.1207 36.7996C24.1207 39.174 24.4816 40.8049 25.2034 41.6923C25.9252 42.5797 26.9357 43.0114 28.2589 43.0114C29.5341 43.0114 30.4965 42.6516 31.1461 41.9561C31.7957 41.2126 32.2769 40.1813 32.5656 38.8382ZM46.1591 26.1747H52.7995V33.6817H60.0654V26.1747H66.7539V47.6163H60.0654V38.9341H52.7995V47.6163H46.1591V26.1747Z"></path>
  <path d="M65.8396 36.8955C65.8396 33.3939 66.8261 30.6597 68.7749 28.717C70.7237 26.7743 73.4665 25.791 76.9551 25.791C80.5399 25.791 83.2827 26.7503 85.2315 28.669C87.1803 30.5877 88.1427 33.2739 88.1427 36.7276C88.1427 39.2459 87.7096 41.2846 86.8675 42.8915C86.0495 44.4744 84.7743 45.7695 83.2105 46.633C81.5985 47.5204 79.6016 47.9761 77.2197 47.9761C74.7897 47.9761 72.7928 47.5923 71.2049 46.8248C69.5688 46.0094 68.2215 44.7382 67.3313 43.1793C66.3449 41.5004 65.8396 39.4138 65.8396 36.8955ZM72.48 36.9195C72.48 39.078 72.889 40.637 73.683 41.5964C74.4769 42.5317 75.5837 43.0114 76.9791 43.0114C78.3986 43.0114 79.5054 42.5557 80.2993 41.6203C81.0933 40.685 81.4782 39.0301 81.4782 36.6317C81.4782 34.617 81.0692 33.13 80.2512 32.2187C79.4332 31.2833 78.3264 30.8276 76.931 30.8276C75.704 30.7796 74.5251 31.3073 73.707 32.2426C72.889 33.178 72.48 34.737 72.48 36.9195ZM94.9514 36.8955C94.9514 33.3939 95.9379 30.6597 97.8867 28.717C99.8355 26.7743 102.578 25.791 106.067 25.791C109.652 25.791 112.419 26.7503 114.343 28.669C116.268 30.5877 117.254 33.2739 117.254 36.7276C117.254 39.2459 116.821 41.2846 115.979 42.8915C115.161 44.4744 113.886 45.7695 112.322 46.633C110.71 47.5204 108.713 47.9761 106.332 47.9761C103.902 47.9761 101.905 47.5923 100.317 46.8248C98.6806 46.0094 97.3333 44.7382 96.4431 43.1793C95.4567 41.5004 94.9514 39.4138 94.9514 36.8955ZM101.592 36.9195C101.592 39.078 102.001 40.637 102.795 41.5964C103.589 42.5317 104.695 43.0114 106.091 43.0114C107.51 43.0114 108.617 42.5557 109.411 41.6203C110.205 40.685 110.59 39.0301 110.59 36.6317C110.59 34.617 110.181 33.13 109.363 32.2187C108.545 31.2833 107.438 30.8276 106.043 30.8276C104.816 30.7796 103.613 31.3073 102.819 32.2426C102.001 33.178 101.592 34.737 101.592 36.9195Z"></path>
  <path d="M123.197 26.1748V42.3399H133.567V47.6164H116.533V26.1748H123.197Z"></path>
  <path
    fillRule="evenodd"
    clipRule="evenodd"
    d="M94.8391 5.89128C88.441 10.6976 86.7271 18.6087 90.431 23.5083C94.1348 28.4079 102.236 28.9459 108.634 24.1395C115.032 19.3332 116.746 11.4221 113.042 6.52249C109.338 1.62289 101.237 1.08492 94.8391 5.89128ZM88.8319 24.7096C84.251 18.6498 86.6602 9.53394 93.633 4.29585C100.606 -0.94224 110.06 -0.738527 114.641 5.32124C119.222 11.381 116.813 20.4969 109.84 25.735C102.867 30.973 93.4128 30.7693 88.8319 24.7096Z"
  ></path>
  <path d="M94.9747 13.4393L97.3807 11.7605L100.34 15.9576C100.845 16.6292 101.23 17.3487 101.519 18.1402C101.687 18.7398 101.639 19.3873 101.399 19.9629C101.086 20.6825 100.581 21.2821 99.9069 21.7138C99.1129 22.2654 98.4393 22.5772 97.8618 22.6731C97.3085 22.7691 96.7311 22.6731 96.2018 22.4333C95.6243 22.1455 95.1191 21.7377 94.7341 21.2101L96.8032 19.2914C96.9717 19.5552 97.1882 19.7951 97.4288 19.9869C97.5972 20.1068 97.7897 20.1788 98.0062 20.1788C98.1746 20.1788 98.343 20.1068 98.4633 20.0109C98.7039 19.867 98.8723 19.5792 98.8483 19.2914C98.7761 18.8837 98.6077 18.4759 98.343 18.1641L94.9747 13.4393ZM102.193 16.1015L104.382 14.3747C104.623 14.6625 104.935 14.8784 105.272 14.9983C105.753 15.1422 106.259 15.0462 106.668 14.7345C106.956 14.5426 107.197 14.2788 107.293 13.943C107.437 13.5113 107.197 13.0316 106.764 12.8877C106.692 12.8637 106.619 12.8397 106.547 12.8397C106.259 12.8157 105.753 12.9357 105.007 13.2475C103.78 13.7511 102.818 13.943 102.096 13.871C101.399 13.7991 100.749 13.4393 100.364 12.8397C100.075 12.432 99.931 11.9523 99.9069 11.4726C99.9069 10.921 100.051 10.3694 100.364 9.91369C100.821 9.26613 101.375 8.7145 102.048 8.28279C103.059 7.58726 103.949 7.25148 104.719 7.25148C105.489 7.25148 106.21 7.61124 106.884 8.35474L104.719 10.0576C104.286 9.50597 103.468 9.38605 102.914 9.81776L102.842 9.88971C102.602 10.0336 102.433 10.2495 102.337 10.5133C102.265 10.7052 102.313 10.921 102.433 11.0889C102.529 11.2088 102.674 11.3048 102.842 11.3048C103.035 11.3287 103.371 11.2328 103.853 11.017C105.056 10.5133 105.97 10.2255 106.595 10.1295C107.125 10.0336 107.678 10.0816 108.183 10.2974C108.64 10.4893 109.025 10.8251 109.29 11.2328C109.627 11.7125 109.819 12.2881 109.843 12.8877C109.867 13.5113 109.699 14.1109 109.362 14.6385C108.929 15.2861 108.376 15.8377 107.726 16.2694C106.403 17.1808 105.32 17.5646 104.454 17.4206C103.516 17.2767 102.746 16.7971 102.193 16.1015Z"></path>
</svg>